<svg id="Layer_1" data-name="Layer 1" xmlns="http://www.w3.org/2000/svg" xmlns:xlink="http://www.w3.org/1999/xlink" viewBox="0 0 1024 1024"><defs><style>.cls-1{fill:#fff;}.cls-2{opacity:0.42;fill:url(#linear-gradient);}.cls-2,.cls-3,.cls-5,.cls-6{isolation:isolate;}.cls-3,.cls-4,.cls-5,.cls-6{fill:#2975bb;}.cls-3{opacity:0.3;}.cls-5{opacity:0.6;}.cls-6{opacity:0.9;}.cls-7{fill:#1660a9;}.cls-8{fill:#ed2728;}</style><linearGradient id="linear-gradient" x1="720.24" y1="141.18" x2="720.24" y2="1165.18" gradientTransform="matrix(1, 0, 0, -1, 0, 1024.54)" gradientUnits="userSpaceOnUse"><stop offset="0" stop-color="#fff"/><stop offset="0.16" stop-color="#fcfdfe" stop-opacity="0.9"/><stop offset="0.3" stop-color="#f1f6fb" stop-opacity="0.82"/><stop offset="0.43" stop-color="#e0ebf5" stop-opacity="0.74"/><stop offset="0.56" stop-color="#c7dbed" stop-opacity="0.66"/><stop offset="0.68" stop-color="#a7c6e3" stop-opacity="0.59"/><stop offset="0.8" stop-color="#7fadd6" stop-opacity="0.52"/><stop offset="0.91" stop-color="#528fc8" stop-opacity="0.45"/><stop offset="1" stop-color="#2975bb" stop-opacity="0.4"/></linearGradient></defs><path class="cls-1" d="M919.1,165.54,527.16,2.92a42.59,42.59,0,0,0-30.87,0L104.88,165.54a40.25,40.25,0,0,0-24.8,36.94V400.39c0,272.32,164.83,517.09,416.76,620.18a41.14,41.14,0,0,0,30.32,0C779.09,917.48,943.92,672.71,943.92,400.39V202.48A40.25,40.25,0,0,0,919.1,165.54Z"/><path class="cls-2" d="M919.1,165.54,527.72,3.15a42.24,42.24,0,0,0-31-.38V1021.11a41.27,41.27,0,0,0,30.33,0C778.94,918,943.77,673.25,943.77,400.92V203C944.32,187,934,171.61,919.1,165.54Z"/><path class="cls-3" d="M645.68,774.81H324.29v-145H704.67v86.55C704.67,748.35,678.21,774.81,645.68,774.81Z"/><path class="cls-4" d="M407.53,454.52,370,385.06H344.69v69.46H308.3v-183h63.95c38.59,0,68.91,13.23,68.91,55.68,0,27.56-13.78,44.65-34.73,52.92l43,75h-41.9ZM344.69,356.4h23.7c23.71,0,36.38-9.93,36.38-29.22,0-19.85-12.67-26.46-36.38-26.46h-23.7Z"/><path class="cls-5" d="M656.71,774.81H400.37s50.71,0,50.71-50.72v-231H704.67V726.85A48,48,0,0,1,656.71,774.81Z"/><path class="cls-6" d="M654,774.81H527.16s50.71,0,50.71-50.72V366.32h126.8V724.09A50.94,50.94,0,0,1,654,774.81Z"/><path class="cls-7" d="M404.83,133.31c-.86-2.47.81-3.31,2.24-4.22,35-22.15,72.09-37.16,114.63-35.15,38.09,1.8,71,25.06,79.4,57.89,6.51,25.44.48,49.27-11.37,72-11.72,22.48-29.79,39.73-47.43,57.32-2.36,2.34-5.08,4.59-8.15,1.77s-.83-5.63,1.39-8.08c8.72-9.61,17.36-19.3,24.26-30.36,13.23-21.23,22.14-43.74,19.64-69.38-3.64-37.26-30.49-62.9-68.41-66.4-34.35-3.16-65.87,5.49-96,21.14C411.89,131.45,409.11,135,404.83,133.31Z"/><path class="cls-7" d="M478.58,137.88a61.28,61.28,0,0,1,18.82,2.59c25.37,7.4,38.65,31,32.4,57.74-6.59,28.25-25.75,47.44-47.15,65-2,1.66-4.39,2.77-6.45.4s-.77-4.74.93-6.59c4.51-4.88,9.44-9.38,13.78-14.4a89,89,0,0,0,19-35.82c8-30.28-9.39-54.17-40.71-55.82-19.48-1-37.35,4.35-54.36,13.32-2.47,1.3-4.82,2.82-7.26,4.19-1.51.86-3.34,2.06-4.7.37-1.84-2.27.1-3.85,1.84-5C426.25,149.4,448.84,138,478.58,137.88Z"/><path class="cls-8" d="M579.27,77.78c13.36-1,23.67-1.52,33.93-2.54,4.41-.45,6.28.48,6.43,5.3.21,6.93,1.26,13.83,2.18,23.06C609.14,91.78,596.25,84.11,579.27,77.78Z"/></svg>